<svg id="图层_1" data-name="图层 1" xmlns="http://www.w3.org/2000/svg" viewBox="0 0 64.2 56.57"><defs><style>.cls-1{fill:#fff;}</style></defs><title>未标题-6</title><path class="cls-1" d="M660.45,373.29h24.47v-4H660.45Zm0,8.42H675.7v-4H660.45Zm0,8.83H675.7v-4H660.45Zm0,8.83H675.7v-4H660.45Zm23.67-8.83h23.27v3.61H683.72l4.82,4.82-2.81,2.81-9.23-9.23,9.23-9.23,2.81,2.81Zm23.27-14.84H684.12v3.61h23.67L703,384.12l2.81,2.81L715,377.7l-9.23-9.23L703,371.28Zm0,0" transform="translate(-650.82 -356.04)"/><path class="cls-1" d="M699.77,363.66a7.62,7.62,0,0,0-7.62-7.62H658.44a7.62,7.62,0,0,0-7.62,7.62V405a7.62,7.62,0,0,0,7.62,7.62h33.71a7.62,7.62,0,0,0,7.62-7.62v-5.62h-4V405a3.6,3.6,0,0,1-3.61,3.61H658.44a3.6,3.6,0,0,1-3.61-3.61V363.66a3.6,3.6,0,0,1,3.61-3.61h33.71a3.6,3.6,0,0,1,3.61,3.61v6.42h4Zm0,0" transform="translate(-650.82 -356.04)"/></svg>