<svg id="图层_1" data-name="图层 1" xmlns="http://www.w3.org/2000/svg" viewBox="0 0 39.69 39.68"><defs><style>.cls-1{fill:#f7b52c;}.cls-2{fill:#323333;}</style></defs><title>未标题-1</title><path class="cls-1" d="M665.12,388.34a9.29,9.29,0,1,0,13.54,12.72,1.24,1.24,0,0,0-1.86-1.65,6.81,6.81,0,1,1-5.1-11.3l6.82,0v2.19a1.24,1.24,0,0,0,2.48,0v-4.69l-9.3.06a9.26,9.26,0,0,0-6.58,2.71Zm0,0" transform="translate(-662.4 -364.5)"/><path class="cls-2" d="M699.36,380.33a9.29,9.29,0,1,0-15.88-6.56v9.34l9.31-.06a9.26,9.26,0,0,0,6.57-2.72Zm-13.4.28v-6.84a6.82,6.82,0,1,1,6.82,6.8ZM671.7,364.5a9.26,9.26,0,0,0-9,6.79,1.24,1.24,0,1,0,2.39.66,6.82,6.82,0,0,1,13.39,1.82v6.84l-6.81,0h0a6.79,6.79,0,0,1-6.5-4.74,1.24,1.24,0,1,0-2.37.75,9.33,9.33,0,0,0,8.87,6.47l9.3.06v-9.34a9.27,9.27,0,0,0-9.3-9.27Zm21.09,21.13-9.31-.06v9.33a9.31,9.31,0,1,0,9.31-9.27Zm0,16.07a6.82,6.82,0,0,1-6.82-6.8v-6.83l6.82,0h0a6.8,6.8,0,1,1,0,13.59Zm-13-8a1.25,1.25,0,0,0-1.24,1.24,6.61,6.61,0,0,1-.19,1.6,1.24,1.24,0,0,0,.92,1.49.92.92,0,0,0,.29,0,1.24,1.24,0,0,0,1.2-.95,9.35,9.35,0,0,0,.26-2.18,1.24,1.24,0,0,0-1.24-1.24Zm0,0" transform="translate(-662.4 -364.5)"/></svg>