<svg id="图层_1" data-name="图层 1" xmlns="http://www.w3.org/2000/svg" viewBox="0 0 58.69 58.69"><defs><style>.cls-1{fill:#bfbebe;stroke:#bfbdbd;stroke-miterlimit:10;stroke-width:2px;}</style></defs><title>未标题-7</title><path class="cls-1" d="M682.13,412.76a28.35,28.35,0,0,1-20.06-48.38,1.52,1.52,0,1,1,2.16,2.15,25.3,25.3,0,1,0,19.42-7.37v8.49a1.53,1.53,0,0,1-3,0V356.07h1.53a28.35,28.35,0,0,1,0,56.69Zm0-24.59a3.73,3.73,0,0,1-2.66-1.1c-1.32-1.32-11.27-15.82-11.69-16.44l.56-.56c.62.42,15.12,10.37,16.44,11.69a3.76,3.76,0,0,1-2.65,6.41Zm0,0" transform="translate(-652.78 -355.07)"/></svg>