<svg id="图层_1" data-name="图层 1" xmlns="http://www.w3.org/2000/svg" viewBox="0 0 56.69 56.69"><defs><style>.cls-1{fill:#fff;}</style></defs><title>未标题-3</title><path class="cls-1" d="M682.55,411.88a28.34,28.34,0,0,1-28.35-28.34V358.36a3.17,3.17,0,0,1,3.17-3.17h50.35a3.17,3.17,0,0,1,3.17,3.17v25.18a28.34,28.34,0,0,1-28.34,28.34Zm24.54-51.61a1.27,1.27,0,0,0-1.27-1.27H659.27a1.26,1.26,0,0,0-1.26,1.27v23.27a24.54,24.54,0,0,0,49.08,0Zm-9.39,34.8a1.9,1.9,0,0,1-2.4,1.22l-12.72-4.14-12.77,4.17a1.9,1.9,0,0,1-1.17-3.62l7.79-2.55-5-1.63a2.06,2.06,0,0,1-1.37-1.87V381.7h-.82a1.91,1.91,0,0,1,0-3.81h.82a1.91,1.91,0,0,1,3.81,0h17.38a1.9,1.9,0,0,1,3.8,0h.83a1.91,1.91,0,0,1,0,3.81H695v4.95a2.07,2.07,0,0,1-1.37,1.88l-5,1.62,7.77,2.53a1.83,1.83,0,0,1,1.1.94,1.92,1.92,0,0,1,.12,1.45Zm-6.46-9.76V381.7H673.86v3.61l8.7,2.84Zm4.63-10.08a1.9,1.9,0,0,1-1.91-1.9V373a1.27,1.27,0,0,0-1.27-1.27H672.4a1.27,1.27,0,0,0-1.27,1.27v.38a1.9,1.9,0,0,1-3.8,0v-2.28a3.17,3.17,0,0,1,3.17-3.17h10.14a1.91,1.91,0,1,1,3.81,0H694.6a3.17,3.17,0,0,1,3.17,3.17v2.28a1.9,1.9,0,0,1-1.9,1.9Zm0,0" transform="translate(-654.2 -355.19)"/></svg>