<svg id="图层_1" data-name="图层 1" xmlns="http://www.w3.org/2000/svg" viewBox="0 0 71.74 84.86"><defs><style>.cls-1{fill:#8968f3;}</style></defs><title>未标题-10</title><path class="cls-1" d="M676.89,346.41H663a2.44,2.44,0,1,1,0-4.88h13.85a2.44,2.44,0,1,1,0,4.88Zm0,0" transform="translate(-646.97 -341.53)"/><path class="cls-1" d="M649.41,416.93a2.45,2.45,0,0,1-2.44-2.45V351.26a9.74,9.74,0,0,1,9.73-9.73H663a2.44,2.44,0,1,1,0,4.88H656.7a4.86,4.86,0,0,0-4.85,4.85v63.22a2.45,2.45,0,0,1-2.44,2.45Zm0,0" transform="translate(-646.97 -341.53)"/><path class="cls-1" d="M684.86,368.28a4.48,4.48,0,0,1-1.67-.33,3.26,3.26,0,0,1-2.08-3V344a2.44,2.44,0,1,1,4.88,0v17.94l2.63-2.53a3.42,3.42,0,0,1,4.75,0l2.1,2V344a2.45,2.45,0,0,1,4.89,0v20.84a3.43,3.43,0,0,1-5.81,2.48L691,363.87l-3.56,3.41a3.63,3.63,0,0,1-2.58,1Zm0,0" transform="translate(-646.97 -341.53)"/><path class="cls-1" d="M714.51,426.38H656.7a9.73,9.73,0,0,1-9.73-9.73v-2.17a2.44,2.44,0,0,1,4.88,0v2.17a4.85,4.85,0,0,0,4.85,4.85h57.81a2.44,2.44,0,1,1,0,4.88Zm0,0" transform="translate(-646.97 -341.53)"/><path class="cls-1" d="M649.41,418.52h-.09A2.45,2.45,0,0,1,647,416a11,11,0,0,1,1.58-6,6.93,6.93,0,0,1,6.1-2.87H713a7.89,7.89,0,0,0,.82-.81V348a3.91,3.91,0,0,0-1.6-1.6H676.89a2.44,2.44,0,1,1,0-4.88h35.45a7.43,7.43,0,0,1,6.37,6.37v59a4,4,0,0,1-1.17,2.53,11.92,11.92,0,0,1-1.47,1.46l-.3.24a3.52,3.52,0,0,1-2.12.83h-59c-1.43,0-2.66,0-2.8,4.2a2.45,2.45,0,0,1-2.44,2.36Zm0,0" transform="translate(-646.97 -341.53)"/><path class="cls-1" d="M661.21,411.91a2.44,2.44,0,0,1-2.44-2.44V344a2.44,2.44,0,1,1,4.88,0v65.5a2.45,2.45,0,0,1-2.44,2.44Zm0,0" transform="translate(-646.97 -341.53)"/><path class="cls-1" d="M714.4,426.39h-.15a10.24,10.24,0,0,1-5-1.6c-1.84-1.21-4-3.61-4-8.19,0-5.92,3.38-9.59,8.84-9.59a2.44,2.44,0,0,1,0,4.88c-1.19,0-4,0-4,4.71,0,2,.62,3.35,1.91,4.15a5.44,5.44,0,0,0,2.37.76,2.88,2.88,0,0,1,.41,0,2.45,2.45,0,0,1-.42,4.87Zm-.17-4.87-.33.06.33-.06Zm0,0" transform="translate(-646.97 -341.53)"/></svg>