<svg id="图层_1" data-name="图层 1" xmlns="http://www.w3.org/2000/svg" viewBox="0 0 84.88 84.88"><defs><style>.cls-1{fill:#bfbebe;}</style></defs><title>未标题-4</title><path class="cls-1" d="M679.2,378.11a7.94,7.94,0,1,0,8,7.94,8,8,0,0,0-8-7.94Zm0,0" transform="translate(-640.24 -341.24)"/><path class="cls-1" d="M682.68,341.24a42.44,42.44,0,1,0,42.44,42.44,42.44,42.44,0,0,0-42.44-42.44Zm23.63,54.66a7.19,7.19,0,0,1-7.19,7.18H666.23A7.2,7.2,0,0,1,659,395.9v-20a7.24,7.24,0,0,1,5.83-7,6.68,6.68,0,0,1,6.32-4.55H681a6.71,6.71,0,0,1,6.27,4.41h11.9a7.19,7.19,0,0,1,7.19,7.18v20Zm0,0" transform="translate(-640.24 -341.24)"/><path class="cls-1" d="M697.68,377a1,1,0,1,0,1,1,1,1,0,0,0-1-1Zm0,0" transform="translate(-640.24 -341.24)"/><path class="cls-1" d="M699.12,370.75H685.63l-.18-.81a4.65,4.65,0,0,0-4.5-3.6h-9.76a4.61,4.61,0,0,0-4.5,3.62l-.16.74-.75.07a5.17,5.17,0,0,0-4.68,5.1v20a5.13,5.13,0,0,0,5.13,5.12h32.89a5.13,5.13,0,0,0,5.14-5.12v-20a5.13,5.13,0,0,0-5.14-5.12Zm-19.92,25.3a10,10,0,1,1,10-10,10,10,0,0,1-10,10Zm18.48-15.13a3,3,0,1,1,3-3,3,3,0,0,1-3,3Zm0,0" transform="translate(-640.24 -341.24)"/></svg>