<svg id="图层_1" data-name="图层 1" xmlns="http://www.w3.org/2000/svg" viewBox="0 0 83.68 84.88"><defs><style>.cls-1{fill:#5e88f6;}</style></defs><title>未标题-11</title><path class="cls-1" d="M656.17,399a3.91,3.91,0,1,0,3.71,3.91,3.92,3.92,0,0,0-3.71-3.91Zm0,0" transform="translate(-640.69 -341.53)"/><path class="cls-1" d="M708.89,385.93V361a3.33,3.33,0,0,0-.9-2.3l-16.28-15.86a3.5,3.5,0,0,0-2.18-1.34H662.79c-3,0-6.56,2.94-6.56,6.08v38.32h-9.37a6.35,6.35,0,0,0-6.17,6.5v27.48a6.35,6.35,0,0,0,6.18,6.5h71.32a6.35,6.35,0,0,0,6.18-6.5V392.43a6.35,6.35,0,0,0-6.18-6.5Zm8.37,35.28H647.45a2.23,2.23,0,0,1-2.23-2.22V393.3a2.23,2.23,0,0,1,2.23-2.22h69.81a2.23,2.23,0,0,1,2.23,2.22V419c0,1.22-1.53,2.22-2.75,2.22Zm-28.5-74.39v11.05a3.08,3.08,0,0,0,3.09,3.06h12v25.12H661.25v-37.7a1.53,1.53,0,0,1,1.53-1.53Zm0,0" transform="translate(-640.69 -341.53)"/><path class="cls-1" d="M667.5,376a2.65,2.65,0,1,1,0-5.3h29.71a2.65,2.65,0,0,1,0,5.3Zm0-12.73a2.66,2.66,0,0,1,0-5.31h12.73a2.66,2.66,0,1,1,0,5.31Zm0,0" transform="translate(-640.69 -341.53)"/></svg>