<svg id="图层_1" data-name="图层 1" xmlns="http://www.w3.org/2000/svg" viewBox="0 0 45.54 39.6"><defs><style>.cls-1{fill:#416aaa;}</style></defs><title>未标题-15</title><path class="cls-1" d="M661.46,394.37a2,2,0,0,0,0,4h10.59a19.76,19.76,0,0,1-1.76-4Zm0-25.74H697.1a2,2,0,1,0,0-4H661.46a2,2,0,1,0,0,4Zm0,19.8h7.92a19.92,19.92,0,0,1,.4-4h-8.32a2,2,0,1,0,0,4Zm27.72-15.84A15.84,15.84,0,1,0,705,388.43a15.84,15.84,0,0,0-15.84-15.84Zm0,29.7A13.86,13.86,0,1,1,703,388.43a13.85,13.85,0,0,1-13.86,13.86Zm-27.72-27.72a2,2,0,0,0,0,4h10.59a20,20,0,0,1,3-4Zm29.7,5.94h-4v9.9h9.9v-4h-5.94Zm0,0" transform="translate(-659.48 -364.67)"/></svg>