<?xml version="1.0" encoding="utf-8"?>
<!-- Generator: Adobe Illustrator 16.0.0, SVG Export Plug-In . SVG Version: 6.00 Build 0)  -->
<!DOCTYPE svg PUBLIC "-//W3C//DTD SVG 1.1//EN" "http://www.w3.org/Graphics/SVG/1.1/DTD/svg11.dtd">
<svg version="1.1" id="图层_1" xmlns="http://www.w3.org/2000/svg" xmlns:xlink="http://www.w3.org/1999/xlink" x="0px" y="0px"
	 width="595.279px" height="841.891px" viewBox="0 0 595.279 841.891" enable-background="new 0 0 595.279 841.891"
	 xml:space="preserve">
<title>未标题-8</title>
<path fill="#ffc636" d="M445.399,707.027c-5.75-0.031-11.467-0.87-16.983-2.494l-122.25-36.729c-5.604-1.685-11.581-1.685-17.186,0l-122.183,36.729
	c-31.063,9.277-63.765-8.384-73.042-39.447c-1.494-5.005-2.314-10.188-2.438-15.41l-2.83-127.507
	c-0.124-5.864-1.976-11.561-5.324-16.376L10.513,400.93c-18.457-26.471-11.961-62.892,14.509-81.349
	c4.399-3.068,9.201-5.515,14.269-7.273l120.498-42.188c5.535-1.905,10.371-5.426,13.883-10.109l77.299-101.493
	c19.663-25.775,56.497-30.729,82.272-11.067c4.166,3.178,7.889,6.9,11.066,11.067l77.299,101.493
	c3.513,4.683,8.349,8.205,13.883,10.109l120.432,42.188c30.498,10.547,46.67,43.82,36.123,74.318
	c-1.757,5.08-4.206,9.894-7.279,14.304L511.78,505.523c-3.348,4.815-5.199,10.512-5.323,16.376l-2.897,127.507
	c-0.349,18.305-9.285,35.379-24.127,46.097c-9.934,7.329-21.958,11.274-34.303,11.255L445.399,707.027z"/>
</svg>
