<svg id="图层_1" data-name="图层 1" xmlns="http://www.w3.org/2000/svg" viewBox="0 0 85.04 85.04"><defs><style>.cls-1{fill:#73d2fc;}</style></defs><title>未标题-14</title><path class="cls-1" d="M723.49,342.16H657.78a1.82,1.82,0,0,0-1.93,1.93v38.65H642.32a1.83,1.83,0,0,0-1.94,1.93v40.59a1.86,1.86,0,0,0,1.36,1.74.71.71,0,0,0,.58.19,1.74,1.74,0,0,0,1.54-.77l7.15-8.89h33.83a1.83,1.83,0,0,0,1.93-1.93V396.27h26.09L722,407.09a2.35,2.35,0,0,0,1.54.78.7.7,0,0,0,.58-.2,1.86,1.86,0,0,0,1.36-1.74V344.09a1.83,1.83,0,0,0-1.94-1.93Zm-58,67.64h-3.87v-3.87h3.87Zm0-7.73h-3.87v-11.6h3.87Zm56-1.55L715.37,393a2.15,2.15,0,0,0-1.54-.58H686.77v-7.74a1.83,1.83,0,0,0-1.93-1.93H659.71V346h61.85Zm-36.72-39.81,5.79-2.9,5.8,2.9v3.48l-6.57,3.28a1.87,1.87,0,0,0-1.16,1.74v3.87h3.87v-2.71l6.57-3.28a2.23,2.23,0,0,0,1.16-1.74v-5.8a1.86,1.86,0,0,0-1.16-1.74l-7.73-3.87a2.73,2.73,0,0,0-1.74,0l-7.73,3.87a2,2,0,0,0-1,1.74v5.8h3.87Zm3.86,20.1h3.87v-3.87H688.7Zm0,0" transform="translate(-640.38 -342.16)"/></svg>