<svg id="图层_1" data-name="图层 1" xmlns="http://www.w3.org/2000/svg" viewBox="0 0 84.69 84.83"><defs><style>.cls-1{fill:#fff;}</style></defs><title>未标题-12</title><path class="cls-1" d="M714.56,417.9a1,1,0,0,1-.7-1v-1.59a2.68,2.68,0,0,0-.8-1.93,2.72,2.72,0,0,0-1.93-.8H657a2.72,2.72,0,0,0-1.93.8,2.68,2.68,0,0,0-.8,1.93v1.18a1,1,0,0,1-.88,1A9.91,9.91,0,0,0,645,427.3h76.39a9.89,9.89,0,0,0-6.82-9.4Zm-58.7-21.84a1.94,1.94,0,0,0,2.67-2.81L647,382.33a1.92,1.92,0,0,0-1.38-.54,1.9,1.9,0,0,0-1.36.61,1.87,1.87,0,0,0-.53,1.38,1.93,1.93,0,0,0,.6,1.36Zm2.14,6.58a1.91,1.91,0,0,0-.78-1.26,2,2,0,0,0-1.45-.34l-14.28,2.35a1.94,1.94,0,0,0,.63,3.83l14.29-2.35a1.94,1.94,0,0,0,1.59-2.23Zm65,0-29-27,10.41-10.4h0a2.44,2.44,0,0,0,3.46,0l.1-.09a2.45,2.45,0,0,0,0-3.47l-18.55-18.55a2.45,2.45,0,0,0-3.47,0l-.1.09a2.46,2.46,0,0,0,0,3.48h0L660,372.67h0a2.45,2.45,0,0,0-3.47,0l-.09.09a2.46,2.46,0,0,0,0,3.48l18.55,18.55a2.45,2.45,0,0,0,3.47,0l.1-.1a2.47,2.47,0,0,0,0-3.47h0l10.4-10.41,27,28.94a5,5,0,0,0,7.23.13,5,5,0,0,0-.13-7.22Zm-55.75-27.82a1,1,0,0,1-1.43,0l0,0a1,1,0,0,1,0-1.43l20.83-20.83a1,1,0,0,1,1.44,0l0,0a1,1,0,0,1,0,1.43Zm0,0" transform="translate(-639.86 -342.47)"/></svg>