<svg id="图层_1" data-name="图层 1" xmlns="http://www.w3.org/2000/svg" viewBox="0 0 196.14 285.77"><defs><style>.cls-1{fill:#fff;}</style></defs><title>未标题-4</title><path class="cls-1" d="M682.69,436.81a53.5,53.5,0,0,1-53.25-53.26V293.93a53.26,53.26,0,1,1,106.51,0v89.62a53.5,53.5,0,0,1-53.26,53.26Zm0-179.26a36.32,36.32,0,0,0-36.37,36.38v89.62a36.37,36.37,0,1,0,72.74,0V293.93a36.31,36.31,0,0,0-36.37-36.38Zm0,0" transform="translate(-584.62 -240.67)"/><path class="cls-1" d="M652.82,526.44a8.45,8.45,0,1,1,0-16.89h21.43V481a94.82,94.82,0,0,1-63-31.17c-17.54-17.54-26.63-41.57-26.63-66.25a8.45,8.45,0,0,1,16.89,0,81.19,81.19,0,0,0,162.37,0,8.44,8.44,0,1,1,16.88,0,95.94,95.94,0,0,1-26.63,66.9c-16.89,18.18-39,28.58-63,31.17v27.93h21.44a8.45,8.45,0,0,1,0,16.89Zm0,0" transform="translate(-584.62 -240.67)"/></svg>