<svg id="图层_1" data-name="图层 1" xmlns="http://www.w3.org/2000/svg" viewBox="0 0 100.2 100.2"><defs><style>.cls-1{fill:#67a8dc;}.cls-2{fill:#fff;}</style></defs><title>未标题-3</title><circle class="cls-1" cx="682.91" cy="384.34" r="50.1" transform="translate(-480.87 626.43) rotate(-76.72)"/><path class="cls-2" d="M656.23,356v46.69h8.84a13.24,13.24,0,0,0,25.67,0h18.85V356Zm11.84,43.35a9.89,9.89,0,0,1,19.67,0Zm38.18,0h-15a13,13,0,0,0-4.5-8.67l4.84-5.67a9.53,9.53,0,0,0,3,.5,8.34,8.34,0,1,0,0-16.67,8.44,8.44,0,0,0-7.5,4.67l-10-2.51a6.67,6.67,0,1,0-6.67,7,6.74,6.74,0,0,0,6-3.67l10,2.5v.33a8.59,8.59,0,0,0,2.5,6l-4.84,5.5a12.31,12.31,0,0,0-6-1.5,13.41,13.41,0,0,0-13.34,12.17h-5v-40h46.69v40Zm-16.67-22a5,5,0,1,1,5,5,5,5,0,0,1-5-5Zm-15.84-5.84a3.34,3.34,0,1,1-3.34-3.33,3.35,3.35,0,0,1,3.34,3.33Zm0,0" transform="translate(-632.81 -334.25)"/></svg>