<svg id="图层_1" data-name="图层 1" xmlns="http://www.w3.org/2000/svg" viewBox="0 0 41.36 56.58"><defs><style>.cls-1{fill:#bfbebe;}</style></defs><title>未标题-9</title><path class="cls-1" d="M696.09,376.85l4.89-8.46a1.74,1.74,0,0,0,.18-.94v-9c0-1.88-1.5-1.88-3.38-1.88H663.57a2.09,2.09,0,0,0-1.32.56,1.74,1.74,0,0,0-.56,1.32v9a1.66,1.66,0,0,0,.19.94l5.45,9.78a20.49,20.49,0,1,0,28.76-1.32Zm1.32-10-4.52,7.71c-.37-.19-.94-.57-1.31-.76V360.31h5.83Zm-15,4.7a20.62,20.62,0,0,0-7.52,1.5V360.31H688v12a28.72,28.72,0,0,0-5.64-.75Zm-16.92-11.28h5.64v14.47c-.19.19-.56.38-.75.57l-4.89-8.46Zm16.92,48.87a16.92,16.92,0,1,1,16.92-16.92,16.85,16.85,0,0,1-16.92,16.92Zm0,0" transform="translate(-661.5 -356.55)"/><path class="cls-1" d="M682.37,381a11.28,11.28,0,1,0,11.28,11.27A11.3,11.3,0,0,0,682.37,381Zm0,18.79a7.52,7.52,0,1,1,7.52-7.52,7.54,7.54,0,0,1-7.52,7.52Zm0,0" transform="translate(-661.5 -356.55)"/></svg>