<svg id="图层_1" data-name="图层 1" xmlns="http://www.w3.org/2000/svg" viewBox="0 0 44.51 42.92"><defs><style>.cls-1{fill:#fff;}</style></defs><title>未标题-1</title><path class="cls-1" d="M684.69,398.29a1.17,1.17,0,0,0,1.19,1.16h18a1.16,1.16,0,1,0,0-2.32h-18a1.17,1.17,0,0,0-1.19,1.16Zm19.18,5.11H677.33a1.17,1.17,0,1,0,0,2.33h26.54a1.17,1.17,0,1,0,0-2.33Zm-25.66-4.25,0,0,.09-.08,19-18.59,3.54-3.46a7.6,7.6,0,0,0,0-10.89l-1-1a8,8,0,0,0-11.13,0l-22.53,22.06-.08.08a.1.1,0,0,1-.05,0l-.13.15h0l0,0c-2.67,3.25-5,14.9-5.31,16.27a1.17,1.17,0,0,0,.35,1.06,1.21,1.21,0,0,0,.82.32l.27,0c1.35-.33,12.88-3.15,16.07-5.79l.13-.1Zm-9.66-11.09L686,371l8.82,8.63L677.38,396.7Zm21.83-21.36a5.57,5.57,0,0,1,7.77,0l1.05,1a5.3,5.3,0,0,1,0,7.61L696.49,378l-8.82-8.65,2.71-2.65Zm-23.31,23.19,8.45,8.27c-2.57,1.4-8.06,3.08-12.25,4.17.94-4.26,2.44-9.86,3.8-12.44Zm0,0" transform="translate(-660.55 -362.81)"/></svg>