<svg id="图层_1" data-name="图层 1" xmlns="http://www.w3.org/2000/svg" viewBox="0 0 56.61 70.99"><defs><style>.cls-1{fill:#fff;}</style></defs><title>未标题-8</title><path class="cls-1" d="M697.82,419.52H674.21a1.59,1.59,0,0,1-1.68-1.68V406h-8.44a1.59,1.59,0,0,1-1.68-1.68v-12l-6.75-3.21a1.74,1.74,0,0,1-.84-1,1.84,1.84,0,0,1,0-1.35l4.22-9.1v-.51c0-15.85,11.8-28.66,26.13-28.66s26.14,12.81,26.14,28.66c0,9.61-4.39,18.72-11.81,23.94v16.53a1.64,1.64,0,0,1-1.68,1.85Zm-21.92-3.37h20.23V400.47a2.11,2.11,0,0,1,.67-1.35l.68-.51a25.94,25.94,0,0,0,10.45-21.24c0-14-10.28-25.29-22.76-25.29s-22.76,11.29-22.76,25.29v.84c0,.34,0,.51-.17.68l-3.71,7.92,6.24,2.87a1.62,1.62,0,0,1,1,1.52v11.29h8.43a1.6,1.6,0,0,1,1.69,1.69Zm0,0" transform="translate(-654.7 -348.54)"/><path class="cls-1" d="M680.28,359.67c-5.73,0-10.11,2.52-10.11,5.9v16.86c0,3.37,4.38,5.9,10.11,5.9s10.12-2.53,10.12-5.9V365.57c0-3.38-4.39-5.9-10.12-5.9Zm-6.74,5.9c0-.85,2.53-2.53,6.74-2.53s6.75,1.68,6.75,2.53v.5c-.34.51-2.53,1.69-6.75,1.69s-6.57-1.35-6.74-1.69ZM687,375.18c-.34.5-2.53,1.68-6.75,1.68s-6.57-1.35-6.74-1.68V370A19.87,19.87,0,0,0,687,370ZM680.28,385c-4.21,0-6.74-1.69-6.74-2.53v-3.21a19.87,19.87,0,0,0,13.49,0v3.21c0,.84-2.53,2.53-6.75,2.53Zm0,0" transform="translate(-654.7 -348.54)"/><path class="cls-1" d="M693.69,375.68a7.59,7.59,0,1,0,7.59,7.59A7.58,7.58,0,0,0,693.69,375.68Zm3,4.67-2.19,2.19v1.52h.84a.84.84,0,1,1,0,1.68h-.84v.85a.85.85,0,0,1-1.69,0v-.85H692a.84.84,0,1,1,0-1.68h.84v-1.52l-2.19-2.19a.83.83,0,1,1,1.18-1.18l1.85,1.85,1.86-1.85a.83.83,0,1,1,1.18,1.18Z" transform="translate(-654.7 -348.54)"/></svg>