<svg id="图层_1" data-name="图层 1" xmlns="http://www.w3.org/2000/svg" viewBox="0 0 49.3 56.69"><defs><style>.cls-1{fill:#fff;}</style></defs><title>未标题-4</title><path class="cls-1" d="M707.22,360.36v28.89a11.91,11.91,0,0,1-1.23,5.17,24.76,24.76,0,0,1-3.23,5A36.43,36.43,0,0,1,698.2,404a48.55,48.55,0,0,1-5.2,3.84,38.8,38.8,0,0,1-5.13,2.81,23,23,0,0,1-4.36,1.53l-.59.11-.54-.11a23.44,23.44,0,0,1-4.46-1.53,41.42,41.42,0,0,1-5.28-2.81,49.26,49.26,0,0,1-5.37-3.84,37.89,37.89,0,0,1-4.71-4.57,24.64,24.64,0,0,1-3.35-5,11.46,11.46,0,0,1-1.29-5.17V360.36l2-.32,22.67-4.47L705.74,360Zm-24.59-.6-.27-.06-19.47,3.49v18.23h19.74Zm19.62,21.66H682.63v25.94a26.08,26.08,0,0,0,4.12-1.4,36.25,36.25,0,0,0,4.39-2.23,37.91,37.91,0,0,0,4.17-2.85,25.52,25.52,0,0,0,3.56-3.38,16.52,16.52,0,0,0,2.46-3.74,9,9,0,0,0,.92-3.94Zm0,0" transform="translate(-657.92 -355.57)"/></svg>