<svg id="图层_1" data-name="图层 1" xmlns="http://www.w3.org/2000/svg" viewBox="0 0 85.04 85.04"><defs><style>.cls-1{fill:#64b3f6;}</style></defs><title>未标题-13</title><path class="cls-1" d="M652.85,364.91h59.07v32.21H652.85Zm69-11.23h-79a3,3,0,0,0-3,3v48.59a3,3,0,0,0,3,3h79a3,3,0,0,0,3-3V356.72a3,3,0,0,0-3-3Zm-3,48.59H645.94V359.75h72.89ZM649,426.57h6.07l5.35-15.18h-5.95Zm36.22-85h-5.57l-3.29,9.11h12.14Zm19.18,69.86,5.34,15.18h6.08l-5.47-15.18Zm-25,0h6.07v9.11h-6.07Zm0,0" transform="translate(-639.87 -341.53)"/></svg>