<svg id="图层_1" data-name="图层 1" xmlns="http://www.w3.org/2000/svg" viewBox="0 0 71.74 84.86"><defs><style>.cls-1{fill:#ffffff;}</style></defs><title>未标题-8</title><path class="cls-1" d="M676.38,347.1H662.54a2.44,2.44,0,1,1,0-4.88h13.84a2.44,2.44,0,1,1,0,4.88Zm0,0" transform="translate(-646.46 -342.22)"/><path class="cls-1" d="M648.9,417.62a2.44,2.44,0,0,1-2.44-2.44V352a9.75,9.75,0,0,1,9.74-9.74h6.34a2.44,2.44,0,1,1,0,4.88H656.2a4.87,4.87,0,0,0-4.86,4.86v63.22a2.44,2.44,0,0,1-2.44,2.44Zm0,0" transform="translate(-646.46 -342.22)"/><path class="cls-1" d="M684.35,369a4.29,4.29,0,0,1-1.67-.33,3.28,3.28,0,0,1-2.08-3v-21a2.44,2.44,0,0,1,4.88,0V362.6l2.63-2.53a3.42,3.42,0,0,1,4.76,0l2.1,2V344.66a2.44,2.44,0,0,1,4.88,0V365.5a3.43,3.43,0,0,1-5.8,2.48l-3.56-3.42L686.93,368a3.67,3.67,0,0,1-2.58,1Zm0,0" transform="translate(-646.46 -342.22)"/><path class="cls-1" d="M714,427.08H656.19a9.75,9.75,0,0,1-9.73-9.74v-2.16a2.44,2.44,0,0,1,4.88,0v2.16a4.85,4.85,0,0,0,4.85,4.85H714a2.45,2.45,0,0,1,0,4.89Zm0,0" transform="translate(-646.46 -342.22)"/><path class="cls-1" d="M648.9,419.21h-.08a2.45,2.45,0,0,1-2.36-2.53,11.07,11.07,0,0,1,1.59-6,6.89,6.89,0,0,1,6.1-2.88h58.36a7.72,7.72,0,0,0,.81-.81V348.7a4,4,0,0,0-1.59-1.6H676.38a2.44,2.44,0,1,1,0-4.88h35.45a7.43,7.43,0,0,1,6.38,6.37v59a4,4,0,0,1-1.17,2.54,11.91,11.91,0,0,1-1.48,1.45,3.15,3.15,0,0,1-.3.24,3.5,3.5,0,0,1-2.12.83h-59c-1.43,0-2.66,0-2.81,4.2a2.44,2.44,0,0,1-2.44,2.36Zm0,0" transform="translate(-646.46 -342.22)"/><path class="cls-1" d="M660.7,412.6a2.44,2.44,0,0,1-2.44-2.44v-65.5a2.44,2.44,0,1,1,4.88,0v65.5a2.44,2.44,0,0,1-2.44,2.44Zm0,0" transform="translate(-646.46 -342.22)"/><path class="cls-1" d="M713.89,427.08h-.14a10.27,10.27,0,0,1-5-1.61c-1.85-1.21-4-3.61-4-8.19,0-5.92,3.39-9.59,8.84-9.59a2.44,2.44,0,0,1,0,4.88c-1.18,0-4,0-4,4.71,0,2,.63,3.35,1.91,4.15a5.54,5.54,0,0,0,2.37.77,3,3,0,0,1,.42,0,2.45,2.45,0,0,1-.43,4.87Zm-.17-4.87-.32.06a1.65,1.65,0,0,1,.32-.06Zm0,0" transform="translate(-646.46 -342.22)"/></svg>