<svg id="图层_1" data-name="图层 1" xmlns="http://www.w3.org/2000/svg" viewBox="0 0 56.69 56.69"><defs><style>.cls-1{fill:#303232;}</style></defs><title>未标题-6</title><path class="cls-1" d="M654.6,382.46a3.63,3.63,0,0,1,.76-1.8,3.47,3.47,0,0,1,1.58-1.12l5.47-2a20.67,20.67,0,0,1,.91-2.19l-2.49-5.24a3.57,3.57,0,0,1,.4-3.7l3.35-3.35a3.56,3.56,0,0,1,1.8-.73,3.62,3.62,0,0,1,1.91.32l5.24,2.49a22.14,22.14,0,0,1,2.2-.91l1.94-5.46a3.57,3.57,0,0,1,1.12-1.59,3.49,3.49,0,0,1,1.8-.75h4.71a3.52,3.52,0,0,1,1.8.75,3.37,3.37,0,0,1,1.12,1.59l1.95,5.46a20.67,20.67,0,0,1,2.19.91l5.24-2.49a3.56,3.56,0,0,1,3.71.41l3.35,3.35a3.52,3.52,0,0,1,.73,1.79,3.61,3.61,0,0,1-.33,1.91l-2.48,5.24c.34.72.64,1.45.91,2.19l5.46,2a3.57,3.57,0,0,1,1.59,1.12,3.54,3.54,0,0,1,.75,1.8v4.71a3.57,3.57,0,0,1-.75,1.8A3.47,3.47,0,0,1,709,390.1L703.49,392c-.27.74-.57,1.48-.91,2.2l2.48,5.24a3.51,3.51,0,0,1,.33,1.91,3.57,3.57,0,0,1-.73,1.79l-3.35,3.35a3.56,3.56,0,0,1-3.71.41l-5.24-2.49a23,23,0,0,1-2.19.91l-1.94,5.47a3.54,3.54,0,0,1-2.92,2.34H680.6a3.61,3.61,0,0,1-1.8-.75,3.37,3.37,0,0,1-1.12-1.59l-1.95-5.46c-.74-.27-1.47-.57-2.19-.91l-5.24,2.48a3.53,3.53,0,0,1-3.71-.4l-3.35-3.35a3.53,3.53,0,0,1-.4-3.71l2.48-5.24c-.34-.72-.64-1.45-.91-2.19l-5.47-1.95a3.65,3.65,0,0,1-1.58-1.13,3.59,3.59,0,0,1-.76-1.8Zm3.55.42a22.85,22.85,0,0,0,0,3.88l7.11,2.52.27.85a18,18,0,0,0,1.34,3.25l.41.79-3.23,6.8a23.81,23.81,0,0,0,2.75,2.75l6.81-3.23.79.42a18.28,18.28,0,0,0,3.24,1.34l.85.26,2.53,7.11c.64.06,1.28.09,1.93.09s1.3,0,1.94-.09l2.52-7.11.86-.26a18.92,18.92,0,0,0,3.24-1.34l.79-.42,6.81,3.23a25.5,25.5,0,0,0,2.75-2.75l-3.24-6.8.42-.79a18.7,18.7,0,0,0,1.34-3.25l.27-.85,7.1-2.52a21,21,0,0,0,0-3.88l-7.1-2.53-.27-.85a18.19,18.19,0,0,0-1.34-3.23l-.42-.8,3.24-6.81a25.41,25.41,0,0,0-2.75-2.74l-6.81,3.23-.79-.42a18.92,18.92,0,0,0-3.24-1.34l-.86-.26L684.89,360c-.64-.06-1.28-.09-1.94-.09s-1.29,0-1.93.09l-2.53,7.11-.85.26a18.28,18.28,0,0,0-3.24,1.34l-.79.42-6.81-3.23a25.41,25.41,0,0,0-2.75,2.74l3.23,6.81-.41.8a17.47,17.47,0,0,0-1.34,3.23l-.27.85Zm0,0" transform="translate(-654.6 -356.48)"/><path class="cls-1" d="M683,376.85a8,8,0,1,1-8,8,8,8,0,0,1,8-8m0-3.55a11.52,11.52,0,1,0,11.52,11.52A11.51,11.51,0,0,0,683,373.3Zm0,0" transform="translate(-654.6 -356.48)"/></svg>