<svg id="图层_1" data-name="图层 1" xmlns="http://www.w3.org/2000/svg" viewBox="0 0 51.62 39.69"><defs><style>.cls-1{fill:#f7b52c;}</style></defs><title>未标题-18</title><path class="cls-1" d="M682.64,364.5c-12.77,0-23.62,8.24-25.79,19.58a1.51,1.51,0,0,0,0,.52c2.17,11.35,13,19.58,25.79,19.58a28.13,28.13,0,0,0,14.17-3.75,1.36,1.36,0,0,0-1.37-2.35,25.38,25.38,0,0,1-12.8,3.39c-11.37,0-21-7.19-23.07-17.13,2-9.94,11.7-17.12,23.07-17.12s21,7.18,23.06,17.12a20,20,0,0,1-5,9.56,1.36,1.36,0,0,0,2,1.85,22.69,22.69,0,0,0,5.73-11.15,1.14,1.14,0,0,0,0-.52c-2.17-11.34-13-19.58-25.78-19.58Zm0,0" transform="translate(-656.83 -364.5)"/><path class="cls-1" d="M682.64,377.81a6.67,6.67,0,0,0-5.1-3c-3.93,0-7.13,3.47-7.13,7.74a9.66,9.66,0,0,0,3,6.28c1.77,2.18,8.06,7.72,9.27,7.72s7.24-5.24,9.21-7.7a9.67,9.67,0,0,0,3-6.3c0-4.27-3.2-7.74-7.13-7.74a6.64,6.64,0,0,0-5.09,3Zm9.51,4.76a7,7,0,0,1-2.17,4.34,1.54,1.54,0,0,0-.17.19,42.94,42.94,0,0,1-7.15,6.45,42.91,42.91,0,0,1-7.21-6.47,1.45,1.45,0,0,0-.17-.18,7.11,7.11,0,0,1-2.15-4.33c0-2.77,2-5,4.41-5,1.52,0,3.07,1.78,3.87,3.44a1.42,1.42,0,0,0,2.45,0c.8-1.66,2.35-3.44,3.87-3.44,2.44,0,4.42,2.25,4.42,5Zm0,0" transform="translate(-656.83 -364.5)"/></svg>