<svg id="图层_1" data-name="图层 1" xmlns="http://www.w3.org/2000/svg" viewBox="0 0 88.78 84.86"><defs><style>.cls-1{fill:#fff;}</style></defs><title>未标题-9</title><path class="cls-1" d="M716.44,342.07H649a10.68,10.68,0,0,0-10.66,10.66V400.6A10.68,10.68,0,0,0,649,411.26h67.45A10.68,10.68,0,0,0,727.1,400.6V352.73a10.41,10.41,0,0,0-10.66-10.66Zm4.79,58.53a4.6,4.6,0,0,1-4.57,4.57H649.21a4.6,4.6,0,0,1-4.57-4.57V352.73a4.6,4.6,0,0,1,4.57-4.57h67.45a4.6,4.6,0,0,1,4.57,4.57Zm-7.62,20.23h-17v-1.74a2.52,2.52,0,0,0-2.61-2.61H669.66a2.52,2.52,0,0,0-2.61,2.61v1.74H650.3a3,3,0,1,0,0,6.1h63.31a3.05,3.05,0,0,0,0-6.1Zm0,0" transform="translate(-638.33 -342.07)"/><path class="cls-1" d="M682.5,368.62c-8.49,0-15.67,4.13-19.15,6.52a1.83,1.83,0,0,0,0,3.05c3.48,2.39,10.66,6.53,19.15,6.53s15.66-4.14,19.14-6.53a1.83,1.83,0,0,0,0-3.05c-3.26-2.17-10.66-6.52-19.14-6.52Zm0,15a7,7,0,1,1,7-7,6.87,6.87,0,0,1-7,7Zm0,0" transform="translate(-638.33 -342.07)"/><path class="cls-1" d="M679,376.67a3.48,3.48,0,1,0,3.48-3.49,3.48,3.48,0,0,0-3.48,3.49Zm0,0" transform="translate(-638.33 -342.07)"/></svg>