<svg id="图层_1" data-name="图层 1" xmlns="http://www.w3.org/2000/svg" viewBox="0 0 42.17 39.68"><defs><style>.cls-1{fill:#eda513;}</style></defs><title>未标题-7</title><path class="cls-1" d="M695.77,404.34H664.34A3.31,3.31,0,0,1,661,401V382a3.31,3.31,0,0,1,3.31-3.31h9.09c2.12,0,3.23-2.5,4.69-6.31a26.1,26.1,0,0,1,2.27-4.94,5.47,5.47,0,0,1,4.62-2.8,5.64,5.64,0,0,1,5.17,2.54,7.22,7.22,0,0,1,.65,4.55,19.73,19.73,0,0,1-1.19,4.44c-.35.92-.73,1.78-1.08,2.52h11.33a3.31,3.31,0,0,1,2.58,1.24,3.28,3.28,0,0,1,.65,2.78l-4.12,19h0a3.31,3.31,0,0,1-3.23,2.59ZM664.34,382v19h31.43l4.12-19H685.83a1.65,1.65,0,0,1-1.42-2.49,33.84,33.84,0,0,0,2.15-4.56c1.53-4,1-5.63.75-6.13-.12-.21-.5-.87-2.3-.87-1.54,0-2.51,2.22-3.8,5.61a26,26,0,0,1-2.54,5.4,6.21,6.21,0,0,1-5.24,3Zm0,0" transform="translate(-661.03 -364.66)"/><rect class="cls-1" x="8.27" y="15.71" width="3.31" height="22.32"/></svg>