<svg id="图层_1" data-name="图层 1" xmlns="http://www.w3.org/2000/svg" viewBox="0 0 39.69 35.73"><defs><style>.cls-1{fill:#323333;}.cls-2{fill:#f7b52c;}</style></defs><title>未标题-2</title><path class="cls-1" d="M694.26,387.65v-17.2a4,4,0,0,0-4-4H666.51a4,4,0,0,0-4,4v17.18a4,4,0,0,0,4,4h0l0,6.63a1.31,1.31,0,0,0,.82,1.22,1.21,1.21,0,0,0,.49.09,1.3,1.3,0,0,0,1-.43l7-7.51h14.47a4,4,0,0,0,4-4Zm-19,1.31h0a1.23,1.23,0,0,0-.38.08.22.22,0,0,1-.13,0,.86.86,0,0,0-.3.21.2.2,0,0,0-.1.08.08.08,0,0,1-.05,0l-5.14,5.48,0-4.4c0-.06.05-.1.05-.17a1.3,1.3,0,0,0-1.31-1.31h-1.4a1.31,1.31,0,0,1-1.31-1.31V370.45a1.31,1.31,0,0,1,1.31-1.31h23.8a1.3,1.3,0,0,1,1.31,1.31v17.18a1.3,1.3,0,0,1-1.31,1.31h-15Zm8.14-11.34h-3.26v-3.26a1.4,1.4,0,0,0-2.79,0v3.26H674.1a1.39,1.39,0,0,0-1.39,1.4,1.37,1.37,0,0,0,1.39,1.39h3.26v3.24a1.4,1.4,0,0,0,1.4,1.4,1.38,1.38,0,0,0,1.39-1.4v-3.26h3.26a1.4,1.4,0,0,0,1.4-1.39,1.38,1.38,0,0,0-1.4-1.38Zm0,0" transform="translate(-662.53 -366.47)"/><path class="cls-2" d="M699.57,393a1.3,1.3,0,0,1-1.31,1.31h-1.33a1.3,1.3,0,0,0-1.31,1.31v2.07l-3-3a1.33,1.33,0,0,0-1-.38H685a1.31,1.31,0,1,0,0,2.62h6.07L696,401.8a1.34,1.34,0,0,0,.93.4,1.44,1.44,0,0,0,.5-.1,1.34,1.34,0,0,0,.83-1.23l0-4h0a4,4,0,0,0,4-4V378.36a4,4,0,0,0-4-3.91h0a1.3,1.3,0,0,0-1.31,1.31,1.33,1.33,0,0,0,1.33,1.31,1.31,1.31,0,0,1,1.31,1.31" transform="translate(-662.53 -366.47)"/></svg>