<svg id="图层_1" data-name="图层 1" xmlns="http://www.w3.org/2000/svg" viewBox="0 0 56.63 56.69"><defs><style>.cls-1{fill:#fff;}</style></defs><title>未标题-2</title><path class="cls-1" d="M682.46,372a5.55,5.55,0,0,0,5.55-5.54,1.79,1.79,0,0,0,0-.23,5.33,5.33,0,0,0,3.16-.45,5.54,5.54,0,1,0,5.27-7.28,5.41,5.41,0,0,0-2.34.53,5.54,5.54,0,0,0-10.81,1.72,1.55,1.55,0,0,0,0,.22,5.55,5.55,0,1,0-.82,11Zm14-10.47a2.52,2.52,0,1,1-2.53,2.52A2.51,2.51,0,0,1,696.42,361.56Zm-7.61-3.3a2.52,2.52,0,1,1-2.52,2.52A2.52,2.52,0,0,1,688.81,358.26Zm-6.35,5.7a2.52,2.52,0,1,1-2.52,2.53A2.53,2.53,0,0,1,682.46,364Z" transform="translate(-655.53 -355.24)"/><path class="cls-1" d="M678.26,401.8a8.92,8.92,0,0,1-14.92-3,8.92,8.92,0,0,1,14.8-9.24,19.38,19.38,0,0,1,1.08-2.77c1.08-2.13,3.26-4.06,4.3-5.65v-6.05c0-.25.08-.49.1-.73l-6.74-3.17a4,4,0,0,0-5.34,1.94l-3.16,6.78A16.19,16.19,0,1,0,682,408.23a19.22,19.22,0,0,1-3.31-5.26C678.54,402.59,678.4,402.2,678.26,401.8Zm.77-25.56a2.21,2.21,0,1,1-2.21,2.21A2.2,2.2,0,0,1,679,376.24Z" transform="translate(-655.53 -355.24)"/><path class="cls-1" d="M705.24,382.55v-7.48c0-2.22-.9-3.87-3.12-3.87h-11.4a4,4,0,0,0-4.09,3.87v7.48c-4.15,2.57-5.75,6.47-6.31,10.92v0a14.71,14.71,0,0,0-.13,2,16.2,16.2,0,0,0,16.21,16.19c8.93,0,15.74-7.25,15.74-16.19A15.93,15.93,0,0,0,705.24,382.55Zm-8.82-7.37a2.2,2.2,0,0,1,2.2,2.21,2.19,2.19,0,0,1-2.2,2.2,2.21,2.21,0,1,1,0-4.41Zm6.3,26.62a8.92,8.92,0,0,1-14.93-4,9.37,9.37,0,0,1-.21-1.08.37.37,0,0,1,0-.11,2.85,2.85,0,0,1,0-.42.59.59,0,0,1,0-.13c0-.17,0-.35,0-.53s0-.33,0-.5a.62.62,0,0,1,0-.13l0-.38s0-.08,0-.12l.06-.41a.13.13,0,0,1,0-.08,4.1,4.1,0,0,1,.1-.48,8.76,8.76,0,0,1,2.36-4.21,8.92,8.92,0,0,1,12.61,12.62Z" transform="translate(-655.53 -355.24)"/></svg>