<svg id="图层_1" data-name="图层 1" xmlns="http://www.w3.org/2000/svg" viewBox="0 0 100.2 100.2"><defs><style>.cls-1{fill:#5c7ebe;}.cls-2{fill:#fff;}</style></defs><title>未标题-1</title><circle class="cls-1" cx="682.14" cy="384.12" r="50.1" transform="translate(-727.12 -43.74) rotate(-22.5)"/><path class="cls-2" d="M702.64,354.37h-5.31a1.79,1.79,0,0,0-1.25.51,1.77,1.77,0,0,0,0,2.51,1.8,1.8,0,0,0,1.25.52h5.31v5.3a1.78,1.78,0,0,0,1.77,1.77,1.76,1.76,0,0,0,1.25-.52,1.72,1.72,0,0,0,.52-1.25v-5.3a3.54,3.54,0,0,0-3.54-3.54Zm1.77,28.3a1.72,1.72,0,0,0-1.25.52,1.76,1.76,0,0,0-.52,1.25v5.31h-5.31a1.76,1.76,0,0,0-1.25.52,1.36,1.36,0,0,0-.21.32,22.08,22.08,0,0,0-6.73-4.54,15.13,15.13,0,0,0-4.45-27.8,16.17,16.17,0,0,0-3.28-.34,15.12,15.12,0,0,0-7.73,28.14A22.41,22.41,0,0,0,667,390.6a2.3,2.3,0,0,0-.21-.33,1.76,1.76,0,0,0-1.25-.52h-5.31v-5.3a1.78,1.78,0,0,0-1.77-1.77,1.76,1.76,0,0,0-1.25.52,1.72,1.72,0,0,0-.52,1.25v5.3a3.54,3.54,0,0,0,3.54,3.54h4.36a28.35,28.35,0,0,0-5.65,14,3.32,3.32,0,0,0,3.31,3.7h38.42a3.33,3.33,0,0,0,3.31-3.7,28.31,28.31,0,0,0-5.65-14h4.36a3.55,3.55,0,0,0,3.54-3.54v-5.31a1.78,1.78,0,0,0-1.77-1.77Zm-42,24.83c1.07-8.39,5.9-15.34,12.63-18.19a3.54,3.54,0,0,0,.44-6.3,11.52,11.52,0,0,1-5.71-9.94,11.65,11.65,0,0,1,11.63-11.63,12.21,12.21,0,0,1,2.55.27,11.67,11.67,0,0,1,8.94,9.55A11.47,11.47,0,0,1,687.32,383a3.59,3.59,0,0,0-1.72,3.29,3.55,3.55,0,0,0,2.16,3c6.73,2.83,11.55,9.77,12.63,18.13Zm-4-42.52a1.78,1.78,0,0,0,1.77-1.77v-5.3h5.31a1.8,1.8,0,0,0,1.25-.52,1.77,1.77,0,0,0,0-2.51,1.79,1.79,0,0,0-1.25-.51h-5.31a3.54,3.54,0,0,0-3.54,3.54v5.3a1.72,1.72,0,0,0,.52,1.25,1.76,1.76,0,0,0,1.25.52Zm0,0" transform="translate(-632.04 -334.03)"/></svg>