<svg id="图层_1" data-name="图层 1" xmlns="http://www.w3.org/2000/svg" viewBox="0 0 95.03 97.64"><defs><style>.cls-1{fill:#f5c12f;}</style></defs><title>未标题-5</title><path class="cls-1" d="M635.48,346.1a1.09,1.09,0,1,0,2.17,0v-6.75A2.32,2.32,0,0,1,640,337h6.75A1.06,1.06,0,0,0,647.8,336a1,1,0,0,0-1.09-1.08H640a4.49,4.49,0,0,0-4.48,4.48Zm0,0" transform="translate(-635.48 -334.87)"/><path class="cls-1" d="M722.66,350.65" transform="translate(-635.48 -334.87)"/><path class="cls-1" d="M729.42,347.19a1.07,1.07,0,0,0,1.09-1.09v-6.75a4.48,4.48,0,0,0-4.48-4.48h-6.76a1,1,0,0,0-1.08,1.08,1.06,1.06,0,0,0,1.08,1.09H726a2.32,2.32,0,0,1,2.32,2.31v6.75a1.05,1.05,0,0,0,1.08,1.09Zm0,0" transform="translate(-635.48 -334.87)"/><path class="cls-1" d="M636.56,420.19a1,1,0,0,0-1.08,1.08V428a4.49,4.49,0,0,0,4.48,4.48h6.75a1.09,1.09,0,0,0,0-2.18H640a2.31,2.31,0,0,1-2.31-2.31v-6.75a1.05,1.05,0,0,0-1.09-1.08Zm0,0" transform="translate(-635.48 -334.87)"/><path class="cls-1" d="M730.51,421.27a1.06,1.06,0,0,0-1.09-1.08,1,1,0,0,0-1.08,1.08V428a2.31,2.31,0,0,1-2.32,2.31h-6.75a1.09,1.09,0,0,0,0,2.18H726a4.49,4.49,0,0,0,4.48-4.48Zm0,0" transform="translate(-635.48 -334.87)"/></svg>