<svg id="图层_1" data-name="图层 1" xmlns="http://www.w3.org/2000/svg" viewBox="0 0 37.12 39.59"><defs><style>.cls-1{fill:#ac4354;}</style></defs><title>未标题-16</title><path class="cls-1" d="M696,365H668.79a5,5,0,0,0-4.95,4.95v29.69a5,5,0,0,0,4.95,5H696a5,5,0,0,0,5-5V369.9a5,5,0,0,0-5-4.95Zm2.47,34.64a2.48,2.48,0,0,1-2.47,2.48H668.79a2.49,2.49,0,0,1-2.48-2.48v-2.47h32.17Zm0-4.95H666.31V369.9a2.49,2.49,0,0,1,2.48-2.48H696a2.48,2.48,0,0,1,2.47,2.48ZM687.72,381.4l-4.08,5V371.13a1.24,1.24,0,0,0-2.48,0v15.22l-4.08-5a1.23,1.23,0,0,0-1.73,1.74l6.06,7.42a1.51,1.51,0,0,0,2,0l6.06-7.42a1.23,1.23,0,1,0-1.73-1.74Zm0,0" transform="translate(-663.84 -364.95)"/></svg>