<?xml version="1.0" encoding="utf-8"?>
<!-- Generator: Adobe Illustrator 16.0.0, SVG Export Plug-In . SVG Version: 6.00 Build 0)  -->
<!DOCTYPE svg PUBLIC "-//W3C//DTD SVG 1.1//EN" "http://www.w3.org/Graphics/SVG/1.1/DTD/svg11.dtd">
<svg version="1.1" id="图层_1" xmlns="http://www.w3.org/2000/svg" xmlns:xlink="http://www.w3.org/1999/xlink" x="0px" y="0px"
	 width="595.279px" height="841.891px" viewBox="0 0 595.279 841.891" enable-background="new 0 0 595.279 841.891"
	 xml:space="preserve">
<title>未标题-7</title>
<path fill="#ffc636" d="M584.553,356.434c-8.859-11.054-22.255-17.492-36.42-17.504H388.196c4.941-10.446,10.307-22.585,15.246-35.573
	c8.022-20.166,13.66-41.201,16.798-62.676c4.021-21.837,0.798-44.39-9.176-64.229c-15.929-24.41-43.924-38.164-72.979-35.855
	c-27.183,0.772-51.955,15.786-65.218,39.525c-13.079,22.065-23.819,45.438-32.044,69.734c-20.61,53.783-36.278,89.073-66.205,89.073
	H46.301c-25.806,0-46.725,20.919-46.725,46.725v268.208c-0.003,0.284-0.003,0.566,0,0.851c0.235,25.805,21.344,46.533,47.148,46.297
	h443.672l-0.422-0.563c21.885-0.005,40.835-15.199,45.595-36.562l58.159-268.208C596.822,381.881,593.443,367.427,584.553,356.434z"
	/>
</svg>
