<svg id="图层_1" data-name="图层 1" xmlns="http://www.w3.org/2000/svg" viewBox="0 0 84.87 84.88"><defs><style>.cls-1{fill:#f5c12f;}.cls-2{fill:#fff;}</style></defs><title>未标题-2</title><path class="cls-1" d="M724.47,413.83A13.43,13.43,0,0,1,711,427.26H653a13.44,13.44,0,0,1-13.43-13.43v-58A13.43,13.43,0,0,1,653,342.38h58a13.43,13.43,0,0,1,13.43,13.43v58Zm0,0" transform="translate(-639.59 -342.38)"/><path class="cls-2" d="M683,357.24c-15.76,0-28.59,11.45-28.59,25.52,0,8.73,4.93,16.45,12.44,21.05a18.57,18.57,0,0,1-8,5.3,18.91,18.91,0,0,1-5.91,1,18.61,18.61,0,0,0,9.34,2.45,17.67,17.67,0,0,0,12.89-5.27,31.69,31.69,0,0,0,7.88,1c15.76,0,28.58-11.45,28.58-25.53S698.72,357.24,683,357.24Zm-15.87,33.15a5.49,5.49,0,1,1,5.48-5.49,5.49,5.49,0,0,1-5.48,5.49Zm16.35,0a5.49,5.49,0,1,1,5.49-5.49,5.48,5.48,0,0,1-5.49,5.49Zm16.36,0a5.49,5.49,0,1,1,5.48-5.49,5.49,5.49,0,0,1-5.48,5.49Zm0,0" transform="translate(-639.59 -342.38)"/></svg>