<svg id="图层_1" data-name="图层 1" xmlns="http://www.w3.org/2000/svg" viewBox="0 0 85.04 78.97"><defs><style>.cls-1{fill:#fff;}</style></defs><title>未标题-14</title><path class="cls-1" d="M679.87,393.93h6.07a3,3,0,1,0,0-6.07h-6.07a3,3,0,1,0,0,6.07Zm0,12.15h6.07a3,3,0,1,0,0-6.07h-6.07a3,3,0,1,0,0,6.07Zm33.4-54.67H701.13v-3a3,3,0,1,0-6.08,0v3H670.76v-3a3,3,0,1,0-6.08,0v3H652.53a12.19,12.19,0,0,0-12.15,12.15v48.59a12.18,12.18,0,0,0,12.15,12.15h60.74a12.18,12.18,0,0,0,12.15-12.15V363.56a12.18,12.18,0,0,0-12.15-12.15Zm6.08,60.74a6.09,6.09,0,0,1-6.08,6.08H652.53a6.09,6.09,0,0,1-6.07-6.08V375.71h72.89Zm0-42.52H646.46v-6.07a6.09,6.09,0,0,1,6.07-6.07h12.15v3a3,3,0,1,0,6.08,0v-3h24.29v3a3,3,0,1,0,6.08,0v-3h12.14a6.09,6.09,0,0,1,6.08,6.07Zm-57.71,36.45h6.08a3,3,0,1,0,0-6.07h-6.08a3,3,0,0,0,0,6.07Zm36.45-12.15h6.07a3,3,0,1,0,0-6.07h-6.07a3,3,0,1,0,0,6.07Zm-36.45,0h6.08a3,3,0,1,0,0-6.07h-6.08a3,3,0,0,0,0,6.07Zm36.45,12.15h6.07a3,3,0,1,0,0-6.07h-6.07a3,3,0,1,0,0,6.07Zm0,0" transform="translate(-640.38 -345.34)"/></svg>