<svg id="图层_1" data-name="图层 1" xmlns="http://www.w3.org/2000/svg" viewBox="0 0 44.39 39.61"><defs><style>.cls-1{fill:#7cad92;}</style></defs><title>未标题-17</title><path class="cls-1" d="M692.5,367.39a1.78,1.78,0,0,1,1.8,1.8v10.9l-12.22,7-11.25-6.71V369.17a1.79,1.79,0,0,1,1.8-1.8h19.79m0-2.93H672.71a4.71,4.71,0,0,0-4.7,4.73V382l12.58,7.59a2.89,2.89,0,0,0,2.9,0l13.72-7.81V369.17a4.71,4.71,0,0,0-4.71-4.71Zm0,0" transform="translate(-660.46 -364.44)"/><path class="cls-1" d="M701.91,379.18V400c0,.54-.77,1.12-1.8,1.12H665.17c-1,0-1.8-.6-1.8-1.12V379.28l17.28,10.36a2.87,2.87,0,0,0,2.94,0l18.32-10.46m2.92-5-22.69,12.93-21.68-12.93V400a4.42,4.42,0,0,0,4.71,4H700a4.42,4.42,0,0,0,4.71-4V374.16Zm0,0" transform="translate(-660.46 -364.44)"/><path class="cls-1" d="M689.31,372.9h-14.9a1.46,1.46,0,0,1-1.26-.73,1.42,1.42,0,0,1,0-1.46,1.44,1.44,0,0,1,1.26-.73h14.9a1.46,1.46,0,1,1,0,2.92Zm0,0" transform="translate(-660.46 -364.44)"/><path class="cls-1" d="M683.47,377.17h-9.06a1.46,1.46,0,0,1-1.26-.73,1.42,1.42,0,0,1,0-1.46,1.44,1.44,0,0,1,1.26-.73h9.06a1.46,1.46,0,0,1,0,2.92Zm0,0" transform="translate(-660.46 -364.44)"/><path class="cls-1" d="M700.19,370.12h-4.5V373h4.48a1.68,1.68,0,0,1,1.68,1.68v24.87a1.68,1.68,0,0,1-1.68,1.68H664.94a1.69,1.69,0,0,1-1.68-1.68V374.7a1.67,1.67,0,0,1,1.68-1.68h4.5v-2.9H665a4.55,4.55,0,0,0-3.23,1.34,4.6,4.6,0,0,0-1.35,3.24v24.87A4.58,4.58,0,0,0,665,404h35.23a4.58,4.58,0,0,0,4.58-4.58V374.6a4.58,4.58,0,0,0-4.66-4.48Zm0,0" transform="translate(-660.46 -364.44)"/></svg>