<svg xmlns="http://www.w3.org/2000/svg" viewBox="0 0 49.09 49.1"><path class="cls-1" d="M688.29,409.48a1.55,1.55,0,0,1-1-.4l-14.9-13.41h-8.62a6,6,0,0,1-6.14-6.14v-9.2a6,6,0,0,1,6.14-6.14h8.62l14.9-13.42a1.53,1.53,0,0,1,2.56,1.15v46a1.51,1.51,0,0,1-.91,1.4,1.48,1.48,0,0,1-.62.14Zm-24.55-32.22a2.89,2.89,0,0,0-3.07,3.07v9.2a2.89,2.89,0,0,0,3.07,3.07h9.2a1.5,1.5,0,0,1,1,.4l12.78,11.5V365.36L674,376.86a1.5,1.5,0,0,1-1,.4ZM696,375.72a1.58,1.58,0,0,1-1.09-.44,1.53,1.53,0,0,1,0-2.17L701,367a1.53,1.53,0,1,1,2.17,2.17L697,375.28a1.55,1.55,0,0,1-1.08.44Zm9.2,10.74H696a1.54,1.54,0,1,1,0-3.07h9.2a1.54,1.54,0,1,1,0,3.07Zm-3.07,16.88a1.53,1.53,0,0,1-1.08-.45l-6.14-6.14a1.53,1.53,0,0,1,0-2.17,1.55,1.55,0,0,1,2.17,0l6.14,6.14a1.54,1.54,0,0,1-1.09,2.62Zm0,0" transform="translate(-657.6 -360.38)" fill="#333333"/></svg>