<svg id="图层_1" data-name="图层 1" xmlns="http://www.w3.org/2000/svg" viewBox="0 0 100.2 100.2"><defs><style>.cls-1{fill:#eba736;}.cls-2{fill:#fff;}</style></defs><title>未标题-2</title><circle class="cls-1" cx="682.64" cy="384.12" r="50.1" transform="translate(-537.18 568.42) rotate(-70.8)"/><path class="cls-2" d="M692,379.77a15.21,15.21,0,1,1,15.19-15.21A15.23,15.23,0,0,1,692,379.77Zm0-26.72a11.51,11.51,0,1,0,11.49,11.51A11.51,11.51,0,0,0,692,353.05Zm0,0" transform="translate(-632.55 -334.03)"/><path class="cls-2" d="M668.13,406.05h-3.69a32.09,32.09,0,0,1,2.13-11.61,30.29,30.29,0,0,1,5.86-9.52,27.59,27.59,0,0,1,8.75-6.46A25.43,25.43,0,0,1,692,376.08v3.7a22.6,22.6,0,0,0-16.79,7.64,27.54,27.54,0,0,0-7,18.63Zm7.17-26.44a13.19,13.19,0,0,1,0-25.84l.74,3.63a9.49,9.49,0,0,0,0,18.58Zm.75-22.21-.74-3.63a13.12,13.12,0,0,1,2.66-.27v3.71a8.75,8.75,0,0,0-1.92.19Zm0,0" transform="translate(-632.55 -334.03)"/><path class="cls-2" d="M658,401.9h-3.7a29.11,29.11,0,0,1,5.85-18.12,20.8,20.8,0,0,1,6.9-5.69,19.81,19.81,0,0,1,9-2.1v3.7a16.22,16.22,0,0,0-7.35,1.71,17.31,17.31,0,0,0-5.68,4.68,25.42,25.42,0,0,0-5,15.82Zm0,0" transform="translate(-632.55 -334.03)"/><rect class="cls-2" x="57.33" y="57.21" width="14.8" height="3.7"/><rect class="cls-2" x="51.04" y="68.31" width="27.38" height="3.7"/></svg>