<svg id="图层_1" data-name="图层 1" xmlns="http://www.w3.org/2000/svg" viewBox="0 0 32.83 39.68"><defs><style>.cls-1{fill:#f5c12f;}.cls-2{fill:#323333;}</style></defs><title>未标题-17</title><path class="cls-1" d="M691,386.1a1.17,1.17,0,0,0-1.11-.4,1.16,1.16,0,0,0-.9.77,8.77,8.77,0,0,1-1.49,2.63c0-.43.07-.87.07-1.3a14.53,14.53,0,0,0-.11-1.62,11.77,11.77,0,0,0-.9-3.14,1,1,0,0,0-.15-.33,11.69,11.69,0,0,0-4.28-4.93,1.22,1.22,0,0,0-1.17,0,1.17,1.17,0,0,0-.62,1,7.92,7.92,0,0,1-.85,3.5,7.82,7.82,0,0,1-3,3.21,10.62,10.62,0,0,0-3.31,3.09,10.27,10.27,0,0,0-1.66,5.59A10,10,0,0,0,672.7,399a10.35,10.35,0,0,0,3.65,3.87,1.2,1.2,0,0,0,1.31,0,1.17,1.17,0,0,0,.44-1.23,11.4,11.4,0,0,1-.27-2.33,9.88,9.88,0,0,1,.68-3.6,9.61,9.61,0,0,1,.7-1.49l.07.16A18.23,18.23,0,0,0,687,403a7.08,7.08,0,0,0,.77.41l.13.07a1.17,1.17,0,0,0,1.24-.15,12.3,12.3,0,0,0,4.17-6.48,13.08,13.08,0,0,0,.39-3.05A12.3,12.3,0,0,0,691,386.1Zm0,0" transform="translate(-666.2 -364.59)"/><path class="cls-2" d="M673.68,379a1.15,1.15,0,0,1-1-.52,1.16,1.16,0,0,1,.34-1.61l.49-.32A1.17,1.17,0,0,1,675,377a1.16,1.16,0,0,1-.33,1.53l-.33.26a1.16,1.16,0,0,1-.68.18Zm0,0" transform="translate(-666.2 -364.59)"/><path class="cls-2" d="M690.17,404.27a1.4,1.4,0,0,1-.41-.06,16.16,16.16,0,0,1-2.73-1.28,18.24,18.24,0,0,1-7.72-8.56l-.07-.17a9.34,9.34,0,0,0-.71,1.5,10,10,0,0,0-.15,6.79,1.15,1.15,0,0,1-.27,1.17A1.17,1.17,0,0,1,677,404a15.11,15.11,0,0,1-8.31-22.72c.22-.35.47-.69.71-1a1.16,1.16,0,0,1,1.84,1.42c-.21.28-.4.56-.59.85a12.79,12.79,0,0,0,5,18.44,13.26,13.26,0,0,1-.11-1.67,12.17,12.17,0,0,1,.83-4.42,12,12,0,0,1,2.34-3.91,1.15,1.15,0,0,1,1.16-.35,1.18,1.18,0,0,1,.86.83,15.71,15.71,0,0,0,.71,2,16,16,0,0,0,6.75,7.49,12.32,12.32,0,0,0,1.83.88,16,16,0,0,0,6.2-9,16.43,16.43,0,0,0,.47-3.89,15.59,15.59,0,0,0-2.33-8.3,14.15,14.15,0,0,1-.79,1.36,14.71,14.71,0,0,1-4.87,4.74,12.9,12.9,0,0,1-1.17.6,1.11,1.11,0,0,1-1.48-1.53,15.06,15.06,0,0,0,1.16-6.08,18.7,18.7,0,0,0-.12-2.12,15.88,15.88,0,0,0-1.17-4.1v-.13l-.07-.13a15.16,15.16,0,0,0-4-5.24,15.18,15.18,0,0,1-1.45,4.45,1.17,1.17,0,0,1-2.08-1.05,13,13,0,0,0,1.36-5.58,1.17,1.17,0,0,1,1.81-1,17.41,17.41,0,0,1,6.37,7.36,1.62,1.62,0,0,1,.2.42,17.15,17.15,0,0,1,1.33,4.66,22.13,22.13,0,0,1,.11,2.44,18.07,18.07,0,0,1-.41,3.81,12.54,12.54,0,0,0,2.44-2.8,11.85,11.85,0,0,0,1.47-2.85,1.17,1.17,0,0,1,.88-.76,1.15,1.15,0,0,1,1.09.37,18.18,18.18,0,0,1,4,11.42,18.48,18.48,0,0,1-.54,4.44,18.25,18.25,0,0,1-7.68,10.78,1.13,1.13,0,0,1-.64.2Zm0,0" transform="translate(-666.2 -364.59)"/></svg>