<svg id="图层_1" data-name="图层 1" xmlns="http://www.w3.org/2000/svg" viewBox="0 0 88.33 84.82"><defs><style>.cls-1{fill:#f5c12f;}</style></defs><title>未标题-8</title><path class="cls-1" d="M704.15,427a9.1,9.1,0,0,1-2.52-.37l-18.14-5.45a4.43,4.43,0,0,0-2.55,0l-18.13,5.45a8.71,8.71,0,0,1-11.2-8.14l-.42-18.92a4.42,4.42,0,0,0-.79-2.43l-10.78-15.56a8.67,8.67,0,0,1,4.27-13.15l17.88-6.26a4.34,4.34,0,0,0,2.06-1.5l11.47-15.06a8.71,8.71,0,0,1,13.85,0l11.47,15.06a4.34,4.34,0,0,0,2.06,1.5l17.87,6.26a8.67,8.67,0,0,1,4.28,13.15L714,397.1a4.42,4.42,0,0,0-.79,2.43l-.43,18.92a8.64,8.64,0,0,1-3.58,6.84,8.55,8.55,0,0,1-5.09,1.67Zm-21.94-10.27a8.9,8.9,0,0,1,2.5.37l18.14,5.45a4.44,4.44,0,0,0,5.71-4.15l.43-18.93a8.66,8.66,0,0,1,1.54-4.75l10.78-15.57a4.44,4.44,0,0,0-2.18-6.71l-17.87-6.25a8.63,8.63,0,0,1-4-2.94l-11.47-15.07a4.45,4.45,0,0,0-7.06,0l-11.46,15.07a8.65,8.65,0,0,1-4.05,2.94L645.3,372.4a4.43,4.43,0,0,0-2.76,2.82,4.38,4.38,0,0,0,.58,3.89l10.78,15.57a8.61,8.61,0,0,1,1.54,4.75l.43,18.93a4.43,4.43,0,0,0,5.71,4.15l18.13-5.45a8.9,8.9,0,0,1,2.5-.37Zm0,0" transform="translate(-638.06 -342.14)"/></svg>