<svg id="图层_1" data-name="图层 1" xmlns="http://www.w3.org/2000/svg" viewBox="0 0 83.68 84.88"><defs><style>.cls-1{fill:#fff;}</style></defs><title>未标题-11</title><path class="cls-1" d="M656,399.63a3.91,3.91,0,1,0,3.7,3.9,3.9,3.9,0,0,0-3.7-3.9Zm0,0" transform="translate(-640.54 -342.14)"/><path class="cls-1" d="M708.75,386.54v-24.9a3.39,3.39,0,0,0-.9-2.3l-16.29-15.86a3.45,3.45,0,0,0-2.17-1.34H662.65c-3,0-6.56,2.94-6.56,6.08v38.32h-9.37a6.36,6.36,0,0,0-6.18,6.5v27.48a6.36,6.36,0,0,0,6.19,6.5h71.32a6.35,6.35,0,0,0,6.17-6.5V393a6.35,6.35,0,0,0-6.17-6.5Zm8.37,35.28H647.3a2.22,2.22,0,0,1-2.22-2.22V393.91a2.22,2.22,0,0,1,2.22-2.22h69.82a2.22,2.22,0,0,1,2.22,2.22V419.6c0,1.23-1.52,2.22-2.75,2.22Zm-28.51-74.39v11.05a3.07,3.07,0,0,0,3.09,3.06h12v25.13H661.1V349a1.55,1.55,0,0,1,1.54-1.53Zm0,0" transform="translate(-640.54 -342.14)"/><path class="cls-1" d="M667.36,376.62a2.65,2.65,0,1,1,0-5.3h29.7a2.65,2.65,0,1,1,0,5.3Zm0-12.73a2.66,2.66,0,1,1,0-5.31h12.73a2.66,2.66,0,0,1,0,5.31Zm0,0" transform="translate(-640.54 -342.14)"/></svg>