<svg id="图层_1" data-name="图层 1" xmlns="http://www.w3.org/2000/svg" viewBox="0 0 85.04 85.04"><defs><style>.cls-1{fill:#fff;}</style></defs><title>未标题-13</title><path class="cls-1" d="M722.73,341.45H657a1.82,1.82,0,0,0-1.93,1.93V382H641.56a1.83,1.83,0,0,0-1.94,1.93v40.59A1.86,1.86,0,0,0,641,426.3a.71.71,0,0,0,.58.19,1.74,1.74,0,0,0,1.54-.77l7.15-8.89h33.83A1.83,1.83,0,0,0,686,414.9V395.57H712.1l9.09,10.82a2.34,2.34,0,0,0,1.54.77.72.72,0,0,0,.58-.19,1.87,1.87,0,0,0,1.36-1.74V343.38a1.83,1.83,0,0,0-1.94-1.93Zm-58,67.65h-3.87v-3.87h3.87Zm0-7.73h-3.87v-11.6h3.87Zm56-1.55-6.19-7.54a2.2,2.2,0,0,0-1.54-.58H686V384a1.83,1.83,0,0,0-1.93-1.93H659V345.32H720.8ZM684.08,360l5.79-2.91,5.8,2.91v3.47l-6.57,3.29a1.87,1.87,0,0,0-1.16,1.74v3.87h3.87v-2.71l6.57-3.29a2.2,2.2,0,0,0,1.16-1.74v-5.79a1.87,1.87,0,0,0-1.16-1.75l-7.73-3.86a2.73,2.73,0,0,0-1.74,0l-7.73,3.86a2,2,0,0,0-1,1.75v5.79h3.87Zm3.86,20.09h3.87v-3.86h-3.87Zm0,0" transform="translate(-639.62 -341.45)"/></svg>