<svg id="图层_1" data-name="图层 1" xmlns="http://www.w3.org/2000/svg" viewBox="0 0 56.59 56.59"><defs><style>.cls-1{fill:#fff;}</style></defs><title>未标题-1</title><path class="cls-1" d="M675.5,366.73a7.07,7.07,0,1,0,7.07-7.08,7.07,7.07,0,0,0-7.07,7.08Zm7.07-3.54a3.54,3.54,0,1,1-3.54,3.54,3.55,3.55,0,0,1,3.54-3.54Zm0,14.15a7.07,7.07,0,1,0,7.07,7.07,7.06,7.06,0,0,0-7.07-7.07Zm0,10.61a3.54,3.54,0,1,1,3.54-3.54,3.55,3.55,0,0,1-3.54,3.54Zm7.07,14.14a7.07,7.07,0,1,0-7.07,7.08,7.07,7.07,0,0,0,7.07-7.08Zm-7.07,3.54a3.54,3.54,0,1,1,3.54-3.54,3.55,3.55,0,0,1-3.54,3.54Zm14.16-7.07V388l14.13-7.08H696.73V370.26l14.13-7.07H696.73v-7.07H668.44v7.07H654.28l14.16,7.07v10.61H654.28L668.44,388v10.61H654.28l14.16,7.07v7.07h28.29v-7.07l14.13-7.07Zm-3.53,10.61H672V359.65H693.2Zm0,0" transform="translate(-654.28 -356.12)"/></svg>