<svg id="图层_1" data-name="图层 1" xmlns="http://www.w3.org/2000/svg" viewBox="0 0 46.19 39.68"><defs><style>.cls-1{fill:#eda513;}</style></defs><title>未标题-9</title><path class="cls-1" d="M670.71,378.39a3,3,0,1,0,2.89,3,2.94,2.94,0,0,0-2.89-3Zm11.55,0a3,3,0,1,0,2.89,3,2.95,2.95,0,0,0-2.89-3Zm11.55,0a3,3,0,1,0,2.89,3,2.95,2.95,0,0,0-2.89-3Zm5.77-13.54H664.93a5.89,5.89,0,0,0-5.77,6v19.6c0,3.3,2.64,6.36,5.9,6.36h8.8c1.53,1.63,7.88,7.51,7.88,7.51a.71.71,0,0,0,1,0s4.65-4.58,7.68-7.51h9c3.26,0,5.9-3.06,5.9-6.36V370.83a5.87,5.87,0,0,0-5.77-6Zm2.89,25.59a3.4,3.4,0,0,1-3,3.39H690.6a3.32,3.32,0,0,0-2.05,1.1l-6.22,5.76-6.22-5.76a4.18,4.18,0,0,0-2.19-1.1h-8.86a3.4,3.4,0,0,1-3-3.39V370.83a2.94,2.94,0,0,1,2.89-3h34.65a2.94,2.94,0,0,1,2.89,3Zm0,0" transform="translate(-659.16 -364.85)"/></svg>