<svg id="图层_1" data-name="图层 1" xmlns="http://www.w3.org/2000/svg" viewBox="0 0 69.52 56.6"><defs><style>.cls-1{fill:#424242;}</style></defs><title>未标题-9</title><path class="cls-1" d="M651.49,355.28a3.26,3.26,0,1,0,3.25,3.26,3.26,3.26,0,0,0-3.25-3.26Zm0,0" transform="translate(-648.15 -355.28)"/><path class="cls-1" d="M663.4,360.71h52.1a2.17,2.17,0,0,0,0-4.34H663.4a2.17,2.17,0,1,0,0,4.34Zm0,0" transform="translate(-648.15 -355.28)"/><path class="cls-1" d="M651.45,380.07a3.26,3.26,0,1,0,3.26,3.26,3.27,3.27,0,0,0-3.26-3.26Zm0,0" transform="translate(-648.15 -355.28)"/><path class="cls-1" d="M715.46,381.16h-52.1a2.17,2.17,0,1,0,0,4.34h52.1a2.17,2.17,0,0,0,0-4.34Zm0,0" transform="translate(-648.15 -355.28)"/><path class="cls-1" d="M651.41,405.37a3.26,3.26,0,1,0,3.25,3.26,3.26,3.26,0,0,0-3.25-3.26Zm0,0" transform="translate(-648.15 -355.28)"/><path class="cls-1" d="M715.42,406.46h-52.1a2.17,2.17,0,0,0,0,4.34h52.1a2.17,2.17,0,1,0,0-4.34Zm0,0" transform="translate(-648.15 -355.28)"/></svg>