<svg id="图层_1" data-name="图层 1" xmlns="http://www.w3.org/2000/svg" viewBox="0 0 69.08 84.88"><defs><style>.cls-1{fill:#5fcaea;}</style></defs><title>未标题-12</title><path class="cls-1" d="M657.14,426.78a9.46,9.46,0,0,1-9.43-9.43V360.76a9.45,9.45,0,0,1,9.43-9.43,3.11,3.11,0,0,1,3.06,3.06l-1,2.48a8.22,8.22,0,0,0-6.13,7.9v47.86c0,4.24,3.3,8.78,7.78,8.78h43.26c4.25,0,7.78-4.54,7.78-8.78V364.77c0-3.78-3.59-6.95-7.36-7.66v-2.48a2.86,2.86,0,0,1,2.83-3.3,9.45,9.45,0,0,1,9.43,9.43v56.59a9.46,9.46,0,0,1-9.43,9.43Zm28.29-25.23h18.86a3.12,3.12,0,0,1,3.07,3.07,3.34,3.34,0,0,1-3.07,3.29H685.43a3.11,3.11,0,0,1-3.06-3.06,3.33,3.33,0,0,1,3.06-3.3Zm0-25h18.86a3.07,3.07,0,1,1,0,6.13H685.43a3.07,3.07,0,0,1,0-6.13Zm-18.86-18.87v-3.3a3.11,3.11,0,0,1,3.06-3.06h3.07a9.43,9.43,0,0,1,18.86,0h3.3a3.12,3.12,0,0,1,3.07,3.06v3.07ZM658.32,377a1.76,1.76,0,0,1,2.12,0l5.19,5.18,11.31-11.31a1.67,1.67,0,0,1,2.36,2.36L667,385.52a3.41,3.41,0,0,1-1.41.47,1.25,1.25,0,0,1-1-.47l-6.13-6.13c-.94-.95-.94-1.89-.23-2.36Zm17.21,33.48a1.58,1.58,0,0,1-2.36,0l-4.95-4.95-5,4.95a1.67,1.67,0,1,1-2.36-2.36l5-4.95-5-4.95a1.67,1.67,0,1,1,2.36-2.36l5,4.95,4.95-4.95a1.67,1.67,0,0,1,2.36,2.36l-4.95,4.95,4.95,4.95a1.57,1.57,0,0,1,0,2.36Zm0,0" transform="translate(-647.71 -341.9)"/></svg>