<svg id="图层_1" data-name="图层 1" xmlns="http://www.w3.org/2000/svg" viewBox="0 0 88.33 84.82"><defs><style>.cls-1{fill:#fff;}</style></defs><title>未标题-15</title><path class="cls-1" d="M685.08,363.94l6,7.92a3.47,3.47,0,0,0,1.61,1.17l9.4,3.28a3.47,3.47,0,0,1,1.7,5.24l-5.68,8.18a3.58,3.58,0,0,0-.62,1.9l-.22,10a3.45,3.45,0,0,1-4.44,3.23L683.32,402a3.55,3.55,0,0,0-2,0l-9.54,2.87a3.45,3.45,0,0,1-4.44-3.23l-.23-10a3.51,3.51,0,0,0-.61-1.9l-5.68-8.18a3.46,3.46,0,0,1,1.7-5.24l9.4-3.28a3.42,3.42,0,0,0,1.61-1.17l6-7.92a3.47,3.47,0,0,1,5.52,0Zm0,0" transform="translate(-638.18 -341.37)"/><path class="cls-1" d="M704.26,426.18a9.1,9.1,0,0,1-2.52-.37l-18.14-5.44a4.27,4.27,0,0,0-2.55,0l-18.13,5.44a8.7,8.7,0,0,1-11.19-8.13l-.43-18.93a4.35,4.35,0,0,0-.78-2.42l-10.79-15.57A8.69,8.69,0,0,1,644,367.61l17.87-6.26a4.46,4.46,0,0,0,2.07-1.49l11.47-15.07a8.71,8.71,0,0,1,13.84,0l11.47,15.07a4.41,4.41,0,0,0,2.07,1.49l17.87,6.26a8.68,8.68,0,0,1,4.27,13.15l-10.79,15.57a4.35,4.35,0,0,0-.78,2.42l-.43,18.93a8.71,8.71,0,0,1-8.68,8.5Zm-21.93-10.27a8.9,8.9,0,0,1,2.5.37L703,421.73a4.4,4.4,0,0,0,3.88-.66,4.47,4.47,0,0,0,1.83-3.49l.42-18.93a8.74,8.74,0,0,1,1.54-4.75l10.78-15.56a4.42,4.42,0,0,0-2.17-6.71l-17.88-6.26a8.63,8.63,0,0,1-4-2.94l-11.46-15.07a4.45,4.45,0,0,0-7.06,0l-11.46,15.07a8.75,8.75,0,0,1-4.05,2.94l-17.88,6.26a4.43,4.43,0,0,0-2.18,6.71L654,393.9a8.54,8.54,0,0,1,1.55,4.75l.42,18.93a4.44,4.44,0,0,0,5.71,4.15l18.14-5.45a8.9,8.9,0,0,1,2.5-.37Zm0,0" transform="translate(-638.18 -341.37)"/></svg>