<svg id="图层_1" data-name="图层 1" xmlns="http://www.w3.org/2000/svg" viewBox="0 0 56.69 64.93"><defs><style>.cls-1{fill:#fff;}</style></defs><title>未标题-7</title><path class="cls-1" d="M707.67,352.62a3.52,3.52,0,0,0-.64.05l-16.35,2.72a5,5,0,0,0-4,4.73h-12.2c-11.76,0-16.2-6.81-16.39-7.1a2,2,0,0,0-3.45,2.14,19.29,19.29,0,0,0,7,6,19.09,19.09,0,0,0-7.26,15.46v26.13a2,2,0,1,0,4.06,0V376.58A15.31,15.31,0,0,1,666.06,363a29.15,29.15,0,0,0,8.42,1.21h2.13v2.28l-13.24,8.1a2,2,0,0,0-1,1.74l0,38.67a2,2,0,0,0,2,2h28.41a2,2,0,0,0,2-2V376.3a2,2,0,0,0-.95-1.72l-13.27-8.32v-2.08h6a5,5,0,0,0,4,4.72L707,371.62a3.55,3.55,0,0,0,.64.06,3.31,3.31,0,0,0,3.36-3.45V356.06a3.31,3.31,0,0,0-3.36-3.44Zm-16.85,48.09h-8.26V388.52h8.27Zm0-23.29v7.05h-10.3a2,2,0,0,0-2,2v16.24a2,2,0,0,0,2,2h10.29v8.17H666.47l0-35.51,12.36-7.55ZM707,367.5l-15.62-2.6a1,1,0,0,1-.61-.72v-4.06a1,1,0,0,1,.61-.73l15.62-2.6Zm0,0" transform="translate(-654.34 -352.06)"/></svg>