<svg id="图层_1" data-name="图层 1" xmlns="http://www.w3.org/2000/svg" viewBox="0 0 62.44 56.69"><defs><style>.cls-1{fill:#bfbebe;}</style></defs><title>未标题-8</title><path class="cls-1" d="M682.62,383.1c17.79,0,31.21-5.87,31.21-13.66s-13.42-13.66-31.21-13.66-31.22,5.87-31.22,13.66,13.42,13.66,31.22,13.66Zm-26.88-13.66c0-3.89,10.22-9.33,26.88-9.33s26.88,5.44,26.88,9.33-10.23,9.32-26.88,9.32-26.88-5.43-26.88-9.32ZM710.88,393l-.08-.05a2,2,0,0,0-1.27-.46,2,2,0,0,0-2,2,2,2,0,0,0,.58,1.41l.06.06a4.53,4.53,0,0,1,1.43,2.92c0,3.93-10.26,9.41-27,9.41s-27-5.48-27-9.41A3.53,3.53,0,0,1,657.1,396l.09-.09.08-.1a2,2,0,0,0,.47-1.28,2,2,0,0,0-2-2,2,2,0,0,0-1.33.51l-.1.07a8.15,8.15,0,0,0-2.81,5.84c0,7.74,13.39,13.58,31.14,13.58s31.13-5.84,31.13-13.58a8.1,8.1,0,0,0-2.75-5.78l-.12-.12Zm-.08-14.92a2,2,0,0,0-1.27-.46,2,2,0,0,0-2,2,2,2,0,0,0,.58,1.4l.06.07a4.53,4.53,0,0,1,1.43,2.92c0,3.93-10.26,9.41-27,9.41s-27-5.48-27-9.41a3.52,3.52,0,0,1,1.45-2.92l.09-.1a.34.34,0,0,0,.08-.09,2,2,0,0,0-1.55-3.31,2,2,0,0,0-1.33.5.39.39,0,0,0-.1.08,8.11,8.11,0,0,0-2.81,5.84c0,7.74,13.39,13.58,31.14,13.58s31.13-5.84,31.13-13.58a8.21,8.21,0,0,0-2.84-5.87.48.48,0,0,0-.11-.09Zm0,0" transform="translate(-651.4 -355.78)"/></svg>