<svg id="图层_1" data-name="图层 1" xmlns="http://www.w3.org/2000/svg" viewBox="0 0 50.19 56.94"><defs><style>.cls-1{fill:#303232;}</style></defs><title>未标题-1</title><path class="cls-1" d="M716.88,410.8c0-2.35-1.72-4.39-4.7-5.8V390.72a20.13,20.13,0,0,0-12.71-18.82,7.84,7.84,0,0,0-15.37,0,20.13,20.13,0,0,0-12.7,18.82V405c-3,1.41-4.71,3.45-4.71,5.8v3.14h15.69a9.45,9.45,0,0,0,18.82,0h15.68Zm-25.09,8.63a6.41,6.41,0,0,1-6.28-5.49h12.55a6.54,6.54,0,0,1-6.27,5.49Zm-22-8.63c0-1.1,1.41-2.35,3.61-3.29a1.68,1.68,0,0,0,.94-1.1c.15-.16.15-.32.15-.63V390.72a17.41,17.41,0,0,1,11.61-16.31l.94-.31v-.94a4.9,4.9,0,0,1,4.71-4.4,4.77,4.77,0,0,1,4.7,4.4v.94l1,.31A17.4,17.4,0,0,1,709,390.72v15.22a1.53,1.53,0,0,0,1.26,1.57c.15,0,.15.15.31.15,1.88.79,3.14,2,3.14,3H669.83Zm0,0" transform="translate(-666.69 -365.63)"/></svg>